<svg width="26" height="26" viewBox="0 0 26 26" fill="none" xmlns="http://www.w3.org/2000/svg">
<path fill-rule="evenodd" clip-rule="evenodd" d="M13.0948 19.4121C10.8169 19.4121 8.5026 18.0599 7.15194 16.2701C0.671958 16.2701 0.476074 25.5272 0.476074 25.5272H25.712C25.712 25.5272 26.2207 16.229 18.9334 16.229C17.5844 18.0409 15.3728 19.4121 13.0948 19.4121Z" fill="white"/>
<path fill-rule="evenodd" clip-rule="evenodd" d="M18.5228 8.31456C18.5228 10.978 16.0916 16.071 13.0901 16.071C10.0934 16.071 7.66064 10.9764 7.66064 8.31456C7.66064 5.65275 10.0918 3.4917 13.0901 3.4917C16.0916 3.49328 18.5228 5.65433 18.5228 8.31456Z" fill="white"/>
<path fill-rule="evenodd" clip-rule="evenodd" d="M20.9459 6.01613C20.9459 5.51694 20.2508 5.11411 19.3883 5.11095V4.08256C19.3883 3.92933 19.4467 0.341797 13.1089 0.341797C6.77426 0.341797 6.83271 3.92933 6.83271 4.08256V5.14729C6.81692 5.14729 6.80428 5.14255 6.79006 5.14255C5.93228 5.14255 5.24194 5.53906 5.24194 6.03035V10.3809C5.24194 10.869 5.93386 11.2671 6.79006 11.2671C7.64627 11.2671 8.34134 10.869 8.34134 10.3809V6.03035C8.34134 5.96242 8.29869 5.90081 8.27341 5.83762V4.65126C8.27341 4.54226 7.81845 1.83463 13.1089 1.83463C18.4009 1.83463 17.8512 4.54226 17.8512 4.65126V5.90081C17.8417 5.9403 17.8117 5.97506 17.8117 6.01613V10.4662C17.8117 10.967 18.5115 11.3729 19.3788 11.3729C19.3977 11.3729 19.412 11.3666 19.4309 11.3666V12.9921H17.8765V14.5245H20.9617L20.9459 6.01613Z" fill="white"/>
</svg>
